<svg width="231" height="65" viewBox="0 0 231 65" fill="none" xmlns="http://www.w3.org/2000/svg">
<g clip-path="url(#clip0_96_193)">
<path d="M51.5869 52.4345H40.5825L37.9624 21.6079L32.0235 47.4435C31.5577 49.4399 28.006 50.3206 25.7935 50.3206C23.5809 50.3206 20.0292 49.4399 19.5634 47.4435L13.6828 21.7253L11.0044 52.4345H0L4.89086 5.93041C5.24021 2.34865 8.38433 0.293549 11.0044 0.0586802C13.7992 -0.176189 17.8749 0.998156 18.7483 4.8735L25.7935 36.4047L32.8386 4.8735C33.712 0.998156 37.7877 -0.176189 40.5825 0.0586802C43.2026 0.293549 46.3467 2.34865 46.6961 5.93041L51.5869 52.4345Z" fill="#FF9D00"/>
<path d="M78.4868 52.4346L78.021 49.9684C75.8084 52.0823 72.6643 53.4327 69.1708 53.4327H67.8899C63.0572 53.4327 55.9539 50.7905 55.9539 41.0434C55.9539 31.2963 62.6497 28.7715 70.2189 28.7715H76.216C76.0995 23.6631 73.6541 22.7236 70.8593 22.7236C69.5202 22.7236 68.3557 22.9585 66.9583 23.3695C66.0267 23.6631 65.2698 24.0741 64.2217 24.5439C62.1257 25.6008 59.0398 24.7787 57.9917 22.43C56.8854 20.0814 57.817 17.6739 59.8549 16.1473C62.9408 13.8573 67.8317 12.9766 71.7909 12.9766C80.2335 12.9766 87.6862 15.9711 87.6862 30.2982V52.4346H78.4868ZM76.216 37.4029H70.9176C68.705 37.4029 67.4823 38.5186 67.4823 40.9847C67.4823 43.4508 68.705 44.3903 70.7429 44.3903H71.558C73.7123 44.3903 76.216 43.0985 76.216 40.1039V37.4029Z" fill="#FF9D00"/>
<path d="M105.852 52.8455C105.852 60.6549 101.311 65 93.9163 65C92.3442 65 91.2962 64.8826 89.8988 64.0605C88.3267 63.1211 87.3951 61.3595 87.8027 58.9521C88.152 56.897 89.8405 55.4291 91.4708 55.4291C91.7037 55.4291 92.2278 55.3704 92.4606 55.3117C93.2176 55.1355 94.0909 54.5483 94.0909 52.8455V19.2005C94.0909 15.1491 96.8275 13.3288 99.9716 13.3288C103.116 13.3288 105.852 15.1491 105.852 19.2005V52.8455ZM99.9716 0C103.232 0 106.027 1.52665 106.027 5.40199C106.027 9.27733 103.232 10.804 99.9716 10.804C96.711 10.804 93.9163 9.27733 93.9163 5.40199C93.9163 1.52665 96.711 0 99.9716 0Z" fill="#FF9D00"/>
<path d="M111.558 29.1825C111.558 16.5583 120.525 12.9178 128.443 12.9178C136.362 12.9178 145.328 16.5583 145.328 29.1825V37.1094C145.328 49.7336 136.187 53.374 128.443 53.374C120.699 53.374 111.558 49.7336 111.558 37.1094V29.1825ZM133.625 28.6541C133.625 24.4851 130.947 22.8411 128.443 22.8411C125.94 22.8411 123.261 24.4851 123.261 28.6541V37.6378C123.261 41.8067 125.94 43.4508 128.443 43.4508C130.947 43.4508 133.625 41.8067 133.625 37.6378V28.6541Z" fill="#FF9D00"/>
<path d="M150.86 52.4346V18.7896C150.86 14.9142 153.655 12.9178 156.741 12.9178C159.011 12.9178 161.166 14.0335 162.155 16.206C164.31 14.1509 167.046 12.9178 169.899 12.9178C170.773 12.9178 171.762 13.0353 172.636 13.3876C174.848 14.3271 176.129 16.6758 175.722 19.4355C175.314 22.1952 173.218 23.9567 170.656 23.9567C169.841 23.9567 168.793 23.898 167.978 23.9567C164.776 24.1916 162.854 26.0118 162.679 28.9477V52.4346H150.86Z" fill="#FF9D00"/>
<path d="M178.982 5.87173C178.982 1.82023 181.719 0 184.979 0C188.24 0 190.976 1.82023 190.976 5.87173V52.4345H178.982V5.87173Z" fill="#FF9D00"/>
<path d="M230.453 21.3144L218.226 49.5574C214.674 57.8365 208.502 61.2421 200.409 60.0677C197.032 59.598 195.343 56.8383 195.693 54.2547C196.1 51.6125 198.022 49.4399 201.457 50.0858C203.844 50.5556 206.29 49.7922 207.221 48.0307V47.972L195.343 21.3144C193.829 17.9088 195.576 14.5619 198.604 13.4462C201.632 12.3306 205.241 13.0939 206.581 16.7931L213.276 35.0542L219.448 16.7931C220.729 13.0939 224.281 12.3306 227.309 13.4462C230.336 14.5619 231.908 17.85 230.453 21.3144Z" fill="#FF9D00"/>
</g>
<defs>
<clipPath id="clip0_96_193">
<rect width="231" height="65" fill="white"/>
</clipPath>
</defs>
</svg>
